<svg width="124" height="27" viewBox="0 0 124 27" fill="none" xmlns="http://www.w3.org/2000/svg">
<path d="M123.545 19.1602H121.157V9.8291C121.157 9.10645 120.898 8.49121 120.381 7.9834C119.873 7.46582 119.258 7.20703 118.535 7.20703C117.822 7.20703 117.207 7.46582 116.689 7.9834C116.182 8.49121 115.928 9.10645 115.928 9.8291V19.1602H113.555V9.8291C113.555 9.10645 113.296 8.49121 112.778 7.9834C112.271 7.46582 111.655 7.20703 110.933 7.20703C110.21 7.20703 109.59 7.46582 109.072 7.9834C108.564 8.49121 108.311 9.10645 108.311 9.8291V19.1602H105.938V4.83398H108.311V5.46387C108.779 5.04395 109.653 4.83398 110.933 4.83398C112.212 4.83398 113.32 5.25879 114.258 6.1084L114.741 6.5332L115.225 6.1084C116.162 5.25879 117.266 4.83398 118.535 4.83398C119.814 4.83398 120.928 5.25879 121.875 6.1084C122.393 6.56738 122.798 7.11914 123.091 7.76367C123.394 8.39844 123.545 9.08691 123.545 9.8291V19.1602Z" fill="black"/>
<path d="M102.715 19.1602H100.342V17.7832C100.234 17.9102 99.7559 18.1738 98.9062 18.5742C98.0664 18.9648 97.1582 19.1602 96.1816 19.1602C95.2051 19.1602 94.292 18.9648 93.4424 18.5742C92.6025 18.1738 91.8799 17.627 91.2744 16.9336C90.1904 15.7129 89.6484 14.2773 89.6484 12.627V4.86328H92.0215V12.627C92.0215 13.7695 92.4268 14.751 93.2373 15.5713C94.0576 16.3818 95.0391 16.7871 96.1816 16.7871C96.7969 16.7871 97.373 16.665 97.9102 16.4209C98.4473 16.167 98.9062 15.8203 99.2871 15.3809C99.9902 14.5996 100.342 13.6816 100.342 12.627V4.86328H102.715V19.1602Z" fill="black"/>
<path d="M86.3379 19.1602H83.9648V4.83398H86.3379V19.1602ZM85.1514 2.95898C84.7412 2.95898 84.3896 2.81738 84.0967 2.53418C83.8135 2.24121 83.6719 1.88965 83.6719 1.47949C83.6719 1.06934 83.8135 0.722656 84.0967 0.439453C84.3896 0.146484 84.7412 0 85.1514 0C85.5615 0 85.9082 0.146484 86.1914 0.439453C86.4844 0.722656 86.6309 1.06934 86.6309 1.47949C86.6309 1.88965 86.4844 2.24121 86.1914 2.53418C85.9082 2.81738 85.5615 2.95898 85.1514 2.95898Z" fill="black"/>
<path d="M73.5352 19.1602H71.1621V4.83398H73.5352V6.21094C73.6523 6.08398 74.1309 5.8252 74.9707 5.43457C75.8203 5.03418 76.7334 4.83398 77.71 4.83398C79.126 4.83398 80.5273 5.33691 81.9141 6.34277L80.2148 8.04199C79.3652 7.48535 78.5303 7.20703 77.71 7.20703C77.0947 7.20703 76.5186 7.33398 75.9814 7.58789C75.4443 7.83203 74.9805 8.17383 74.5898 8.61328C73.8867 9.4043 73.5352 10.3271 73.5352 11.3818V19.1602Z" fill="black"/>
<path d="M49.5117 19.1602H47.1387V17.7832C47.0312 17.9102 46.5527 18.1738 45.7031 18.5742C44.8633 18.9648 43.9551 19.1602 42.9785 19.1602C42.002 19.1602 41.0889 18.9648 40.2393 18.5742C39.3994 18.1738 38.6768 17.627 38.0713 16.9336C36.9873 15.7129 36.4453 14.2773 36.4453 12.627V4.86328H38.8184V12.627C38.8184 13.7695 39.2236 14.751 40.0342 15.5713C40.8545 16.3818 41.8359 16.7871 42.9785 16.7871C43.5938 16.7871 44.1699 16.665 44.707 16.4209C45.2441 16.167 45.7031 15.8203 46.084 15.3809C46.7871 14.5996 47.1387 13.6816 47.1387 12.627V4.86328H49.5117V19.1602Z" fill="black"/>
<path d="M33.1641 26.0449H30.791V17.5195C30.6152 17.7441 30.0293 18.1055 29.0332 18.6035C28.0371 19.1016 26.958 19.3506 25.7959 19.3506C24.4385 19.3506 23.2031 19.0186 22.0898 18.3545C20.9766 17.6904 20.0879 16.8018 19.4238 15.6885C18.7598 14.5752 18.4277 13.3398 18.4277 11.9824C18.4277 10.625 18.7598 9.38965 19.4238 8.27637C20.0879 7.16309 20.9766 6.27441 22.0898 5.61035C23.2031 4.94629 24.4385 4.61426 25.7959 4.61426C27.0752 4.61426 28.2471 4.91211 29.3115 5.50781C30.3857 6.10352 31.2598 6.90918 31.9336 7.9248C32.6074 8.93066 33.0078 10.0635 33.1348 11.3232C33.1543 11.5967 33.1641 16.5039 33.1641 26.0449ZM25.7959 16.9775C26.7139 16.9775 27.5488 16.7529 28.3008 16.3037C29.0625 15.8545 29.668 15.2539 30.1172 14.502C30.5664 13.7402 30.791 12.9004 30.791 11.9824C30.791 11.0645 30.5664 10.2295 30.1172 9.47754C29.668 8.71582 29.0625 8.11035 28.3008 7.66113C27.5488 7.21191 26.7139 6.9873 25.7959 6.9873C24.8779 6.9873 24.0381 7.21191 23.2764 7.66113C22.5244 8.11035 21.9238 8.71582 21.4746 9.47754C21.0254 10.2295 20.8008 11.0645 20.8008 11.9824C20.8008 12.9004 21.0254 13.7402 21.4746 14.502C21.9238 15.2539 22.5244 15.8545 23.2764 16.3037C24.0381 16.7529 24.8779 16.9775 25.7959 16.9775Z" fill="black"/>
<path fill-rule="evenodd" clip-rule="evenodd" d="M14.7362 12.0682C14.7362 12.0682 14.7362 12.0681 14.7362 12.0681C14.7362 7.99881 11.4374 4.7 7.3681 4.7C3.29881 4.7 0 7.99881 0 12.0681C0 16.1374 3.29881 19.4362 7.3681 19.4362C9.30364 19.4362 11.0649 18.6899 12.3797 17.4693L12.3633 19.2459H14.7363V12.0682H14.7362ZM7.36818 17.0926C10.1431 17.0926 12.3926 14.8431 12.3926 12.0682C12.3926 9.29326 10.1431 7.04375 7.36818 7.04375C4.59326 7.04375 2.34374 9.29326 2.34374 12.0682C2.34374 14.8431 4.59326 17.0926 7.36818 17.0926Z" fill="black"/>
<path fill-rule="evenodd" clip-rule="evenodd" d="M67.4362 12.0682C67.4362 12.0682 67.4362 12.0681 67.4362 12.0681C67.4362 7.99881 64.1374 4.7 60.0681 4.7C55.9988 4.7 52.7 7.99881 52.7 12.0681C52.7 16.1374 55.9988 19.4362 60.0681 19.4362C62.0036 19.4362 63.7649 18.6899 65.0797 17.4693L65.0633 19.2459H67.4363V12.0682H67.4362ZM60.0682 17.0926C62.8431 17.0926 65.0926 14.8431 65.0926 12.0682C65.0926 9.29326 62.8431 7.04375 60.0682 7.04375C57.2933 7.04375 55.0437 9.29326 55.0437 12.0682C55.0437 14.8431 57.2933 17.0926 60.0682 17.0926Z" fill="black"/>
</svg>
