<svg width="132" height="22" viewBox="0 0 132 22" fill="none" xmlns="http://www.w3.org/2000/svg">
<g clip-path="url(#clip0_2_49)">
<path d="M131.895 14.5459H129.507V4.51171L124.746 10.9131L119.971 4.51171V14.5459H117.598V0.249023H119.766L124.746 6.94336L129.727 0.249023H131.895V14.5459Z" fill="black"/>
<path d="M107.285 21.4306C106.367 21.4306 105.493 21.2646 104.663 20.9326C103.833 20.6006 102.988 20.039 102.129 19.248L103.813 17.5635C104.907 18.5596 106.064 19.0576 107.285 19.0576C108.164 19.0576 108.965 18.8428 109.688 18.4131C110.41 17.9834 110.986 17.4072 111.416 16.6846C111.846 15.9619 112.061 15.1611 112.061 14.2822V13.1396C111.953 13.2666 111.479 13.5303 110.64 13.9306C109.8 14.3213 108.887 14.5166 107.9 14.5166C106.934 14.5166 106.025 14.3213 105.176 13.9306C104.326 13.5303 103.604 12.9834 103.008 12.29C101.914 11.0693 101.367 9.63381 101.367 7.98339V0.219727H103.755V7.98339C103.755 9.13574 104.16 10.1172 104.971 10.9277C105.781 11.7383 106.758 12.1435 107.9 12.1435C108.525 12.1435 109.106 12.0215 109.644 11.7773C110.181 11.5234 110.64 11.1816 111.021 10.7519C111.714 9.94141 112.061 9.01855 112.061 7.98339V0.219727H114.434L114.448 14.3555C114.448 14.9805 114.36 15.5957 114.185 16.2012C113.706 17.7148 112.832 18.9648 111.562 19.9512C110.293 20.9375 108.867 21.4306 107.285 21.4306Z" fill="black"/>
<path d="M97.998 14.5459H95.625V13.1689C95.5176 13.2959 95.0391 13.5596 94.1895 13.9599C93.3496 14.3506 92.4414 14.5459 91.4648 14.5459C90.4883 14.5459 89.5752 14.3506 88.7256 13.9599C87.8857 13.5596 87.1631 13.0127 86.5576 12.3193C85.4736 11.0986 84.9316 9.66311 84.9316 8.01269V0.249023H87.3047V8.01269C87.3047 9.15527 87.71 10.1367 88.5205 10.957C89.3408 11.7676 90.3223 12.1728 91.4648 12.1728C92.0801 12.1728 92.6562 12.0508 93.1934 11.8066C93.7305 11.5527 94.1895 11.206 94.5703 10.7666C95.2734 9.98531 95.625 9.06738 95.625 8.01269V0.249023H97.998V14.5459Z" fill="black"/>
<path d="M69.8145 21.4306H67.4414C67.4414 11.8896 67.4512 6.98242 67.4707 6.70898C67.5977 5.44921 67.998 4.3164 68.6719 3.31054C69.3457 2.29492 70.2148 1.48925 71.2793 0.893554C72.3535 0.297852 73.5303 0 74.8096 0C76.167 0 77.4023 0.332031 78.5156 0.996094C79.6289 1.66015 80.5176 2.54882 81.1816 3.66211C81.8457 4.77539 82.1777 6.01074 82.1777 7.36816C82.1777 8.72558 81.8457 9.96091 81.1816 11.0742C80.5176 12.1875 79.6289 13.0762 78.5156 13.7402C77.4023 14.4043 76.167 14.7363 74.8096 14.7363C73.6475 14.7363 72.5684 14.4873 71.5723 13.9892C70.5859 13.4912 70 13.1299 69.8145 12.9053V21.4306ZM74.8096 12.3633C75.7275 12.3633 76.5625 12.1387 77.3145 11.6894C78.0762 11.2402 78.6816 10.6396 79.1309 9.88771C79.5801 9.12597 79.8047 8.28613 79.8047 7.36816C79.8047 6.45019 79.5801 5.61523 79.1309 4.86328C78.6816 4.10156 78.0762 3.49609 77.3145 3.04687C76.5625 2.59765 75.7275 2.37304 74.8096 2.37304C73.8916 2.37304 73.0518 2.59765 72.29 3.04687C71.5381 3.49609 70.9375 4.10156 70.4883 4.86328C70.0391 5.61523 69.8145 6.45019 69.8145 7.36816C69.8145 8.28613 70.0391 9.12597 70.4883 9.88771C70.9375 10.6396 71.5381 11.2402 72.29 11.6894C73.0518 12.1387 73.8916 12.3633 74.8096 12.3633Z" fill="black"/>
<path d="M41.5576 14.5459H33.4863V0.249023H40.6055C41.25 0.249023 41.8408 0.405274 42.3779 0.717774C42.915 1.03027 43.3398 1.45019 43.6523 1.97753C43.9941 2.53418 44.165 3.14941 44.165 3.82324C44.165 4.59472 44.0332 5.16113 43.7695 5.52246C44.1895 5.68847 44.6582 6.07421 45.1758 6.67968C45.9375 7.55859 46.3184 8.58886 46.3184 9.77051C46.3184 10.9521 45.9375 11.9873 45.1758 12.876C44.7363 13.3935 44.2041 13.8037 43.5791 14.1064C42.9541 14.3994 42.2803 14.5459 41.5576 14.5459ZM40.6055 5.00976C40.9277 5.00976 41.2061 4.89257 41.4404 4.6582C41.6748 4.42382 41.792 4.1455 41.792 3.82324C41.792 3.49121 41.6748 3.208 41.4404 2.97363C41.2061 2.73925 40.9277 2.62207 40.6055 2.62207H35.8594V5.00976H40.6055ZM41.5576 12.1728C42.2119 12.1728 42.7734 11.9385 43.2422 11.4697C43.7109 11.001 43.9453 10.4346 43.9453 9.77051C43.9453 9.11621 43.7109 8.55468 43.2422 8.08593C42.7734 7.61718 42.2119 7.38281 41.5576 7.38281H35.8594V12.1728H41.5576Z" fill="black"/>
<path d="M31.1572 14.5459C29.5654 14.5459 28.2275 14.2236 27.1436 13.5791C26.0596 12.9346 25.1953 12.0752 24.5508 11.001C23.9062 9.91701 23.5791 8.80859 23.5693 7.67578C23.2178 7.7832 22.4072 7.83691 21.1377 7.83691L20.7129 7.82226V14.5459H18.3398V0.249023H20.7129V5.44921H22.3096C23.1885 5.44921 23.9844 5.23437 24.6973 4.80468C25.4199 4.375 25.9961 3.79882 26.4258 3.07617C26.8555 2.35351 27.0703 1.41113 27.0703 0.249023H29.458C29.458 2.25097 28.916 3.90625 27.832 5.21484C27.2363 5.92773 26.6113 6.46484 25.957 6.82617L25.9717 7.38281C25.9717 8.27148 26.1865 9.07714 26.6162 9.79981C27.0459 10.5224 27.6221 11.0986 28.3447 11.5283C29.0674 11.958 30.0049 12.1728 31.1572 12.1728V14.5459Z" fill="black"/>
<path fill-rule="evenodd" clip-rule="evenodd" d="M14.7362 7.36818C14.7362 7.36815 14.7362 7.36813 14.7362 7.3681C14.7362 3.29881 11.4374 0 7.3681 0C3.29881 0 0 3.29881 0 7.3681C0 11.4374 3.29881 14.7362 7.3681 14.7362C9.30364 14.7362 11.0649 13.9899 12.3797 12.7693L12.3633 14.5459H14.7363V7.36818H14.7362ZM7.36818 12.3926C10.1431 12.3926 12.3926 10.1431 12.3926 7.36819C12.3926 4.59327 10.1431 2.34375 7.36818 2.34375C4.59326 2.34375 2.34374 4.59327 2.34374 7.36819C2.34374 10.1431 4.59326 12.3926 7.36818 12.3926Z" fill="black"/>
<path fill-rule="evenodd" clip-rule="evenodd" d="M63.8362 7.36818C63.8362 7.36815 63.8362 7.36813 63.8362 7.3681C63.8362 3.29881 60.5374 0 56.4681 0C52.3988 0 49.1 3.29881 49.1 7.3681C49.1 11.4374 52.3988 14.7362 56.4681 14.7362C58.4036 14.7362 60.1649 13.9899 61.4797 12.7693L61.4633 14.5459H63.8363V7.36818H63.8362ZM56.4682 12.3926C59.2431 12.3926 61.4926 10.1431 61.4926 7.36819C61.4926 4.59327 59.2431 2.34375 56.4682 2.34375C53.6933 2.34375 51.4437 4.59327 51.4437 7.36819C51.4437 10.1431 53.6933 12.3926 56.4682 12.3926Z" fill="black"/>
</g>
<defs>
<clipPath id="clip0_2_49">
<rect width="131.895" height="21.4306" fill="white"/>
</clipPath>
</defs>
</svg>
